<?xml version="1.0" encoding="UTF-8"?>
<svg version="1.1" xmlns="http://www.w3.org/2000/svg" width="40" height="40">
<path d="M0 0 C0.67418102 17.77840312 0.67418102 17.77840312 -4.546875 23.77734375 C-7.25379538 26.32256755 -9.5607212 27.83863228 -13.0625 29.125 C-18.10678546 28.91034955 -20.88973863 26.17194256 -24.25 22.625 C-27.70280802 17.44578796 -28.24088758 12.76704195 -28.125 6.625 C-28.10695313 5.37976562 -28.08890625 4.13453125 -28.0703125 2.8515625 C-28.04710937 1.91054687 -28.02390625 0.96953125 -28 0 C-16.7971608 -5.31628987 -11.05267991 -5.38849474 0 0 Z M-20.25 0.5 C-21.30960938 0.91765625 -21.30960938 0.91765625 -22.390625 1.34375 C-22.92171875 1.5603125 -23.4528125 1.776875 -24 2 C-24.65251984 11.50882644 -24.65251984 11.50882644 -21 20 C-19.0794172 21.83261718 -17.12591168 23.39375562 -15 25 C-9.96627156 23.56179187 -8.01044111 21.09754485 -5 17 C-3.90493508 13.71480525 -3.90039392 11.26336585 -3.9375 7.8125 C-3.94652344 6.72582031 -3.95554687 5.63914062 -3.96484375 4.51953125 C-3.97644531 3.68808594 -3.98804687 2.85664063 -4 2 C-5.24663331 1.49166409 -6.49749387 0.99368855 -7.75 0.5 C-8.79414063 0.08234375 -8.79414063 0.08234375 -9.859375 -0.34375 C-13.72622419 -1.52920742 -16.62811516 -0.94875394 -20.25 0.5 Z " fill="#14C7F4" transform="translate(34,8)"/>
<path d="M0 0 C0.66 0 1.32 0 2 0 C1.42424336 3.35250701 0.40693737 4.93818629 -2.0625 7.25 C-2.88427734 8.03117187 -2.88427734 8.03117187 -3.72265625 8.828125 C-4.14417969 9.21484375 -4.56570312 9.6015625 -5 10 C-6.9375 9.25 -6.9375 9.25 -9 8 C-9.75 5.875 -9.75 5.875 -10 4 C-8.9171875 4.4021875 -8.9171875 4.4021875 -7.8125 4.8125 C-6.4203125 4.9053125 -6.4203125 4.9053125 -5 5 C-2.29151077 2.62494782 -2.29151077 2.62494782 0 0 Z " fill="#14C6F2" transform="translate(24,15)"/>
</svg>
